HIERARCHY
ROOT Hip
{
  OFFSET 0.0 0.0 0.0
  CHANNELS 6 Xposition Yposition Zposition Xrotation Yrotation Zrotation
  JOINT LowerSpine
  {
    OFFSET 0.0 0.061367 -0.03653
    CHANNELS 3 Xrotation Yrotation Zrotation
    JOINT MiddleSpine
    {
      OFFSET 0.0 0.056002 0.002633
      CHANNELS 3 Xrotation Yrotation Zrotation
      JOINT Chest
      {
        OFFSET 0.0 0.069296 -0.013882
        CHANNELS 3 Xrotation Yrotation Zrotation
        JOINT Neck
        {
          OFFSET 0.0 0.156156 -0.002923
          CHANNELS 3 Xrotation Yrotation Zrotation
          JOINT Head
          {
            OFFSET 0.0 0.088183 0.023986
            CHANNELS 3 Xrotation Yrotation Zrotation
            End Site
            {
              OFFSET 1e-06 0.123215 0.003678
            }
          }
        }
        JOINT LClavicle
        {
          OFFSET 0.014189 0.150698 0.046467
          CHANNELS 3 Xrotation Yrotation Zrotation
          JOINT LShoulder
          {
            OFFSET 0.082893 0.021616 -0.034976
            CHANNELS 3 Xrotation Yrotation Zrotation
            JOINT LForearm
            {
              OFFSET 0.195645 -0.000695 -0.001695
              CHANNELS 3 Xrotation Yrotation Zrotation
              JOINT LHand
              {
                OFFSET 0.163209 0.000474 -0.000977
                CHANNELS 3 Xrotation Yrotation Zrotation
                End Site
                {
                  OFFSET 0.0 0.006864 0.0
                }
              }
            }
          }
        }
        JOINT RClavicle
        {
          OFFSET -0.014189 0.150698 0.046467
          CHANNELS 3 Xrotation Yrotation Zrotation
          JOINT RShoulder
          {
            OFFSET -0.082908 0.021619 -0.034982
            CHANNELS 3 Xrotation Yrotation Zrotation
            JOINT RForearm
            {
              OFFSET -0.195645 -0.000695 -0.001695
              CHANNELS 3 Xrotation Yrotation Zrotation
              JOINT RHand
              {
                OFFSET -0.163209 0.000474 -0.000977
                CHANNELS 3 Xrotation Yrotation Zrotation
                End Site
                {
                  OFFSET 0.0 0.006864 0.0
                }
              }
            }
          }
        }
      }
    }
  }
  JOINT RThigh
  {
    OFFSET -0.072558 0.02774 -0.005953
    CHANNELS 3 Xrotation Yrotation Zrotation
    JOINT RShin
    {
      OFFSET -0.005253 -0.285537 0.0
      CHANNELS 3 Xrotation Yrotation Zrotation
      JOINT RFoot
      {
        OFFSET 0.0 -0.28038 0.0
        CHANNELS 3 Xrotation Yrotation Zrotation
        JOINT RToe
        {
          OFFSET 0.0 -0.030816 0.064441
          CHANNELS 3 Xrotation Yrotation Zrotation
          End Site
          {
            OFFSET 0.0 0.0 0.043231
          }
        }
      }
    }
  }
  JOINT LThigh
  {
    OFFSET 0.072557 0.027741 -0.005953
    CHANNELS 3 Xrotation Yrotation Zrotation
    JOINT LShin
    {
      OFFSET 0.005253 -0.285539 0.0
      CHANNELS 3 Xrotation Yrotation Zrotation
      JOINT LFoot
      {
        OFFSET 0.0 -0.28038 0.0
        CHANNELS 3 Xrotation Yrotation Zrotation
        JOINT LToe
        {
          OFFSET 0.0 -0.030816 0.064441
          CHANNELS 3 Xrotation Yrotation Zrotation
          End Site
          {
            OFFSET 0.0 0.0 0.043231
          }
        }
      }
    }
  }
}
MOTION
Frames: 10
Frame Time: 0.03333333333333333
0.009523 0.578834 -0.018235 4.309166 9.170721 -3.200785 -0.180322 0.120887 0.241496 -0.411629 1.375468 0.48252 -5.053644 2.944583 -0.365057 -1.551346 0.128677 0.058491 0.053789 -0.226547 -0.046323 -0.358023 -0.95462 -11.259913 24.269714 -25.3517 -49.561562 11.941404 -24.807234 -0.207073 0.152603 0.207195 -0.135155 -0.916605 1.594875 11.905489 18.375319 29.304022 49.861305 7.400761 19.466078 2.411608 -0.030176 -0.214843 -0.017121 -6.012046 -2.245548 -0.427084 17.57835 -1.682257 1.1618 -1.077951 1.49112 0.259739 -0.230825 0.3497 0.14645 -5.232352 4.014314 1.457889 10.565127 1.702112 -2.882479 -0.835025 -1.543632 -0.149739 0.06591 -0.195604 -0.086448 
-0.003432 0.574581 -0.027486 4.887774 10.902243 -2.116778 -0.227541 0.056415 0.459603 -0.811489 0.862739 0.663255 -5.862377 2.856777 -0.42696 -0.817551 0.166646 -0.115087 0.037077 -0.173279 -0.018611 -0.61708 -1.094786 -11.160192 26.470892 -24.667208 -47.329769 13.671583 -24.292427 -0.18405 0.079037 0.11792 -0.083953 -0.945269 1.97201 11.092197 20.688347 30.08935 47.155907 8.885879 21.96184 2.424468 -0.155395 -0.111275 -0.021399 -8.645073 -1.437065 -0.798124 22.286077 -1.382771 1.038737 -0.66571 0.967939 0.153966 -0.311888 0.151337 0.124611 -6.14185 4.242345 0.767575 8.040039 2.092763 -2.418555 -0.580112 -1.647462 -0.296991 0.086288 -0.147411 -0.078269 
-0.003816 0.567739 -0.018512 6.326293 13.432176 -1.737585 -0.16502 -0.030421 0.34535 -0.866508 0.776313 0.848391 -7.094483 1.880621 0.0099 -0.70294 0.249132 -0.176919 0.030742 -0.127611 -0.010449 -0.344779 -0.951898 -11.319595 27.635843 -24.418304 -46.705647 14.270988 -24.857969 -0.764054 0.06249 0.106853 -0.078166 -0.745952 1.545342 11.125157 22.089191 29.436691 45.980148 9.403407 23.246481 3.474133 -0.085588 -0.144243 -0.016096 -9.628289 -1.744769 -1.546508 22.667629 -1.675731 1.232232 -0.959818 0.816955 0.048531 -0.262437 0.214176 0.122093 -8.181773 3.926383 0.265604 8.18202 2.769384 -2.168181 -0.748282 -1.33488 -0.207809 0.071309 -0.106642 -0.05714 
0.000619 0.562758 -0.015045 7.065643 13.123221 -1.490522 -0.072635 -0.040563 0.30787 -0.895564 0.724187 0.888319 -7.761205 1.180388 0.36214 -0.582269 0.231733 -0.195759 0.023567 -0.108092 -0.005477 -0.309059 -0.863552 -11.359927 27.761564 -24.253975 -46.688381 14.20927 -25.320662 -1.132153 0.049572 0.087389 -0.066059 -0.665296 1.458053 11.135364 21.930704 28.914936 45.542229 9.241228 24.301775 4.185564 -0.056738 -0.128769 -0.010567 -9.934192 -2.345492 -1.854829 22.783171 -1.960682 1.398996 -1.051195 0.75552 0.027635 -0.258382 0.201362 0.11286 -9.666804 3.949848 -0.192571 8.842882 3.034632 -2.09762 -0.807425 -1.178057 -0.166108 0.054644 -0.073485 -0.043829 
-9.7e-05 0.56069 -0.00969 7.444361 11.80866 -1.330079 0.019386 -0.033038 0.313322 -0.93932 0.701458 0.886937 -8.18231 0.880225 0.453204 -0.448154 0.224855 -0.181432 0.019566 -0.113624 -0.005226 -0.337475 -0.879215 -11.354334 27.601713 -24.413717 -46.799347 14.012116 -25.365395 -1.306459 0.043477 0.076926 -0.058576 -0.669842 1.450621 11.186734 21.372656 28.713419 45.723137 9.025988 24.220888 4.433714 -0.061613 -0.109131 -0.009823 -10.600586 -2.57784 -1.82617 23.587643 -2.133591 1.507405 -1.109005 0.660759 -0.003704 -0.274716 0.177292 0.108482 -10.729268 4.010489 -0.438998 9.227428 3.000151 -2.097464 -0.885749 -1.105344 -0.146607 0.045363 -0.057235 -0.040191 
-0.000909 0.558153 -0.005324 7.688099 11.340228 -1.051233 0.101411 -0.028157 0.320455 -0.963518 0.715953 0.869206 -8.442715 1.011597 0.451454 -0.341668 0.232393 -0.16127 0.016251 -0.116358 -0.004949 -0.33952 -0.910004 -11.211607 27.532887 -24.740118 -46.859982 13.916341 -25.479221 -1.442886 0.03941 0.071555 -0.053187 -0.702621 1.445807 11.257916 20.623854 29.290615 46.302151 8.519919 22.33996 4.445126 -0.065896 -0.097016 -0.009588 -11.321436 -2.458267 -1.789945 24.613415 -2.081065 1.536739 -1.282109 0.580371 -0.04048 -0.291133 0.160513 0.105873 -11.679231 4.221902 -0.609094 9.55196 2.987312 -2.175574 -0.948878 -1.099402 -0.164262 0.040551 -0.049214 -0.037749 
-0.002654 0.556104 -0.002517 7.863876 11.639674 -0.918543 0.150372 -0.018881 0.332835 -0.978774 0.734373 0.870426 -8.51999 1.22261 0.522977 -0.288604 0.241653 -0.154602 0.013415 -0.12044 -0.005372 -0.348528 -0.954512 -11.074101 27.625614 -24.778063 -46.907818 13.794169 -25.520456 -1.506647 0.037418 0.069229 -0.050812 -0.741138 1.483552 11.279507 20.045963 29.602819 46.793243 7.879104 20.901766 4.506489 -0.069015 -0.091359 -0.009756 -11.703012 -2.337632 -1.711493 25.10417 -1.977109 1.528489 -1.48427 0.544764 -0.066228 -0.306217 0.15023 0.104947 -12.550739 4.299428 -0.58495 9.745869 2.94091 -2.224823 -0.9729 -1.10829 -0.188626 0.038435 -0.048367 -0.037258 
-0.005752 0.55491 0.001149 7.924764 12.573773 -0.731044 0.178175 -0.003668 0.341125 -0.993955 0.761921 0.881582 -8.603649 1.520389 0.671506 -0.266758 0.245734 -0.156262 0.010339 -0.116914 -0.004691 -0.358929 -0.975868 -10.907278 28.059574 -24.597649 -46.937691 13.814651 -25.829762 -1.604597 0.035654 0.065886 -0.04922 -0.767998 1.552168 11.31918 19.582596 29.809217 47.274414 7.234387 19.586576 4.560078 -0.06392 -0.089794 -0.009144 -11.680722 -2.22621 -1.627636 25.288025 -1.86624 1.527995 -1.69456 0.535197 -0.075927 -0.323908 0.138982 0.101414 -13.579249 4.419589 -0.491037 9.872169 2.963864 -2.240625 -0.908714 -1.142563 -0.232786 0.035716 -0.048193 -0.03612 
-0.009795 0.55387 0.006113 7.879211 13.940264 -0.494768 0.19555 0.016873 0.343986 -1.004236 0.80562 0.884997 -8.633166 1.896626 0.86372 -0.244943 0.24455 -0.166403 0.006984 -0.10725 -0.002655 -0.382603 -0.963112 -10.734355 28.625473 -24.230165 -47.076302 13.888637 -26.220596 -1.779329 0.032659 0.06111 -0.04494 -0.777411 1.63087 11.387103 18.921057 30.091444 47.684872 6.57657 18.341444 4.60132 -0.053166 -0.08757 -0.007522 -11.351193 -2.103442 -1.496814 25.324442 -1.739208 1.531652 -1.912144 0.516044 -0.083636 -0.344325 0.124125 0.093507 -14.688824 4.593529 -0.366218 10.028155 3.083451 -2.246952 -0.783502 -1.187608 -0.28582 0.031404 -0.046005 -0.033972 
-0.013611 0.552691 0.011742 8.152554 15.431392 -0.519301 0.210924 0.034258 0.325874 -1.016894 0.863787 0.889522 -8.565822 2.306561 1.162172 -0.225361 0.244929 -0.177056 0.003653 -0.095353 -0.003282 -0.408532 -0.968702 -10.584377 29.17363 -23.827778 -47.277973 14.051464 -26.489141 -1.978448 0.032168 0.05613 -0.039854 -0.78055 1.701555 11.451511 18.070063 30.311707 48.017151 5.850307 17.270601 4.630641 -0.035698 -0.087975 -0.00624 -11.318086 -2.126733 -1.301622 25.487904 -1.733977 1.627264 -2.125087 0.476924 -0.10499 -0.363425 0.113745 0.081037 -16.429543 4.745903 -0.162323 10.503431 3.222604 -2.287495 -0.638406 -1.241731 -0.340886 0.027619 -0.04425 -0.028254 
